<svg width="375" height="44" viewBox="0 0 375 44" fill="none" xmlns="http://www.w3.org/2000/svg">
<path d="M53.4171 15.9418C53.9781 15.9418 54.5179 16.0359 55.0364 16.2241C55.5584 16.4123 56.0236 16.7124 56.432 17.1243C56.8439 17.5362 57.1688 18.0831 57.4068 18.7649C57.6482 19.4432 57.7708 20.2759 57.7743 21.2631C57.7743 22.19 57.6695 23.0174 57.46 23.7454C57.2541 24.4698 56.9575 25.0859 56.5705 25.5938C56.1834 26.1016 55.7164 26.4886 55.1695 26.755C54.6227 27.0178 54.0119 27.1491 53.3372 27.1491C52.6092 27.1491 51.9664 27.0089 51.4089 26.7283C50.8514 26.4442 50.4021 26.0589 50.0612 25.5724C49.7239 25.0824 49.5197 24.532 49.4487 23.9212H51.7232C51.8119 24.3189 51.9984 24.6278 52.2825 24.848C52.5666 25.0646 52.9181 25.1729 53.3372 25.1729C54.0474 25.1729 54.5872 24.864 54.9565 24.2461C55.3258 23.6246 55.5122 22.7741 55.5158 21.6946H55.4412C55.2779 22.0142 55.0577 22.2894 54.7807 22.5202C54.5037 22.7475 54.1859 22.9233 53.8272 23.0476C53.4721 23.1719 53.0939 23.234 52.6926 23.234C52.0499 23.234 51.4764 23.0831 50.9721 22.7812C50.4678 22.4794 50.0701 22.0639 49.7789 21.5348C49.4877 21.0057 49.3421 20.402 49.3421 19.7237C49.3386 18.9922 49.5073 18.3406 49.8482 17.7688C50.1891 17.1971 50.6649 16.7496 51.2757 16.4265C51.8901 16.0998 52.6039 15.9382 53.4171 15.9418ZM53.433 17.7528C53.0744 17.7528 52.7548 17.8381 52.4742 18.0085C52.1972 18.179 51.9771 18.408 51.8137 18.6957C51.6539 18.9833 51.5758 19.3047 51.5794 19.6598C51.5794 20.0185 51.6575 20.3416 51.8137 20.6293C51.9735 20.9134 52.1901 21.1406 52.4636 21.3111C52.7406 21.478 53.0566 21.5614 53.4117 21.5614C53.6781 21.5614 53.9249 21.5117 54.1521 21.4123C54.3794 21.3129 54.5765 21.1761 54.7434 21.0021C54.9139 20.8246 55.047 20.6204 55.1429 20.3896C55.2388 20.1587 55.2867 19.9137 55.2867 19.6545C55.2832 19.31 55.2015 18.994 55.0417 18.7063C54.8819 18.4187 54.6617 18.1879 54.3812 18.0138C54.1007 17.8398 53.7846 17.7528 53.433 17.7528ZM60.42 25.7322C60.0684 25.7322 59.7666 25.608 59.5144 25.3594C59.2659 25.1108 59.1416 24.8089 59.1416 24.4538C59.1416 24.1058 59.2659 23.8075 59.5144 23.5589C59.7666 23.3104 60.0684 23.1861 60.42 23.1861C60.7609 23.1861 61.0592 23.3104 61.3149 23.5589C61.5705 23.8075 61.6984 24.1058 61.6984 24.4538C61.6984 24.6882 61.638 24.9031 61.5173 25.0984C61.4001 25.2901 61.2456 25.4446 61.0539 25.5618C60.8621 25.6754 60.6508 25.7322 60.42 25.7322ZM60.42 20.3789C60.0684 20.3789 59.7666 20.2546 59.5144 20.006C59.2659 19.7575 59.1416 19.4556 59.1416 19.1005C59.1416 18.7525 59.2659 18.456 59.5144 18.2109C59.7666 17.9624 60.0684 17.8381 60.42 17.8381C60.7609 17.8381 61.0592 17.9624 61.3149 18.2109C61.5705 18.456 61.6984 18.7525 61.6984 19.1005C61.6984 19.3384 61.638 19.555 61.5173 19.7504C61.4001 19.9421 61.2456 20.0948 61.0539 20.2085C60.8621 20.3221 60.6508 20.3789 60.42 20.3789ZM63.075 25.0824V23.266L67.6293 16.0909H69.1953V18.6051H68.2685L65.3974 23.1488V23.234H71.8694V25.0824H63.075ZM68.3111 27V24.5284L68.3537 23.7241V16.0909H70.5164V27H68.3111ZM77.7057 16.0909V27H75.3993V18.2802H75.3353L72.8371 19.8462V17.8008L75.5377 16.0909H77.7057Z" fill="#181818"/>
<rect opacity="0.35" x="321.833" y="17.8334" width="21" height="10.3333" rx="2.16667" stroke="#181818"/>
<path opacity="0.4" d="M344.333 21V25C345.138 24.6612 345.661 23.8731 345.661 23C345.661 22.1269 345.138 21.3388 344.333 21Z" fill="#181818"/>
<rect x="323.333" y="19.3334" width="18" height="7.33333" rx="1.33333" fill="#181818"/>
<path fill-rule="evenodd" clip-rule="evenodd" d="M308.667 19.6152C310.892 19.6153 313.031 20.4694 314.644 22.001C314.765 22.1192 314.959 22.1177 315.079 21.9976L316.239 20.8273C316.3 20.7664 316.334 20.6839 316.333 20.598C316.333 20.5122 316.298 20.4301 316.237 20.3699C312.005 16.3176 305.329 16.3176 301.097 20.3699C301.035 20.43 301.001 20.5121 301 20.598C300.999 20.6838 301.033 20.7663 301.094 20.8273L302.255 21.9976C302.374 22.1179 302.568 22.1194 302.69 22.001C304.302 20.4693 306.442 19.6152 308.667 19.6152ZM308.667 23.4227C309.889 23.4227 311.068 23.8766 311.974 24.6964C312.097 24.8127 312.29 24.8102 312.409 24.6907L313.569 23.5204C313.63 23.459 313.663 23.3757 313.663 23.2892C313.662 23.2027 313.626 23.1201 313.564 23.0599C310.805 20.4955 306.532 20.4955 303.773 23.0599C303.71 23.1201 303.675 23.2027 303.674 23.2893C303.673 23.3758 303.707 23.4591 303.768 23.5204L304.927 24.6907C305.047 24.8102 305.24 24.8127 305.362 24.6964C306.268 23.8772 307.446 23.4233 308.667 23.4227ZM310.989 25.9846C310.991 26.0714 310.957 26.155 310.895 26.2158L308.89 28.2378C308.831 28.2972 308.751 28.3307 308.667 28.3307C308.583 28.3307 308.503 28.2972 308.445 28.2378L306.439 26.2158C306.377 26.155 306.343 26.0713 306.345 25.9845C306.347 25.8977 306.384 25.8156 306.449 25.7574C307.729 24.6751 309.605 24.6751 310.886 25.7574C310.95 25.8156 310.988 25.8978 310.989 25.9846Z" fill="#181818"/>
<path fill-rule="evenodd" clip-rule="evenodd" d="M295 17.6666H294C293.448 17.6666 293 18.1143 293 18.6666V27.3333C293 27.8856 293.448 28.3333 294 28.3333H295C295.552 28.3333 296 27.8856 296 27.3333V18.6666C296 18.1143 295.552 17.6666 295 17.6666ZM289.333 20H290.333C290.886 20 291.333 20.4477 291.333 21V27.3333C291.333 27.8856 290.886 28.3333 290.333 28.3333H289.333C288.781 28.3333 288.333 27.8856 288.333 27.3333V21C288.333 20.4477 288.781 20 289.333 20ZM285.667 22.3333H284.667C284.114 22.3333 283.667 22.781 283.667 23.3333V27.3333C283.667 27.8856 284.114 28.3333 284.667 28.3333H285.667C286.219 28.3333 286.667 27.8856 286.667 27.3333V23.3333C286.667 22.781 286.219 22.3333 285.667 22.3333ZM281 24.3333H280C279.448 24.3333 279 24.781 279 25.3333V27.3333C279 27.8856 279.448 28.3333 280 28.3333H281C281.552 28.3333 282 27.8856 282 27.3333V25.3333C282 24.781 281.552 24.3333 281 24.3333Z" fill="#181818"/>
</svg>
